#!OML:ASF I:\golf\golf\golf 2\Subject 1\2002-09-07\Subject1.ASF
:FULLY-SPECIFIED
:DEGREES
224
root 1.25739 15.9766 -2.49171 50.9059 11.2226 4.43481
lowerback 36.6929 3.8524 2.27454
upperback 22.9111 5.6336 13.5749
thorax 5.63782 1.82909 11.905
lowerneck -26.4549 -11.8744 -24.8722
upperneck 9.52853 -6.10197 -5.66462
head 7.74346 -4.42958 0.682804
rclavicle -3.18055e-014 -1.66979e-014
rhumerus 72.2545 -8.59195 -56.8173
rradius 23.2894
rwrist -6.21012
rhand -45.6424 26.1649
rfingers 7.12502
rthumb -18.4017 -2.98474
lclavicle -3.18055e-014 -1.66979e-014
lhumerus -7.50735 -37.1305 92.5133
lradius 95.6023
lwrist -19.0849
lhand -47.4572 22.1936
lfingers 7.12502
lthumb -20.1468 51.1689
rfemur -93.085 -22.2481 32.9499
rtibia 66.6826
rfoot -20.5965 -1.27074
rtoes -5.53381
lfemur -93.2792 -1.37747 -29.2833
ltibia 53.13
lfoot -5.41127 -22.2854
ltoes 8.95531
225
root 1.26837 15.9846 -2.46462 50.9326 11.1931 4.38591
lowerback 36.8008 3.96686 2.15096
upperback 22.9382 5.74198 13.6428
thorax 5.58734 1.86325 12.0084
lowerneck -26.1518 -11.8437 -24.87
upperneck 9.19404 -6.20916 -5.63346
head 7.58562 -4.4419 0.70021
rclavicle 2.54444e-014 -4.13472e-014
rhumerus 72.0989 -8.66143 -56.3431
rradius 23.4457
rwrist -6.46482
rhand -45.6693 25.7766
rfingers 7.12502
rthumb -18.4276 -3.3706
lclavicle 2.54444e-014 -4.13472e-014
lhumerus -7.59003 -37.1408 92.4358
lradius 95.8657
lwrist -18.6962
lhand -47.4283 21.812
lfingers 7.12502
lthumb -20.119 50.7902
rfemur -92.9778 -22.2186 32.89
rtibia 66.7552
rfoot -20.7969 -1.29137
rtoes -5.13482
lfemur -93.2627 -1.25825 -29.4659
ltibia 53.2572
lfoot -5.47131 -22.4701
ltoes 9.48245
226
root 1.30541 15.9153 -2.46558 52.2607 11.6119 4.76324
lowerback 35.3274 3.575 2.64613
upperback 22.752 5.33917 13.5818
thorax 6.01741 1.73241 11.8635
lowerneck -26.0637 -11.8686 -24.9765
upperneck 9.23784 -6.25262 -5.48089
head 7.59862 -4.45496 0.761812
rclavicle -6.20208e-014 6.91771e-014
rhumerus 71.9431 -8.74928 -56.0686
rradius 23.6374
rwrist -6.59232
rhand -45.6861 25.7281
rfingers 7.12502
rthumb -18.4437 -3.41753
lclavicle -6.20208e-014 6.91771e-014
lhumerus -7.64956 -37.0788 92.483
lradius 97.1596
lwrist -14.7602
lhand -43.5388 18.2453
lfingers 7.12502
lthumb -16.3772 47.5738
rfemur -94.799 -22.5278 33.4248
rtibia 66.9938
rfoot -20.5818 -1.27077
rtoes -4.91489
lfemur -94.7297 -2.12821 -29.4971
ltibia 53.4111
lfoot -5.19557 -22.5151
ltoes 9.64176
227
root 1.31561 15.9241 -2.44091 52.3088 11.4517 4.80903
lowerback 35.3941 3.78389 2.413
upperback 22.8403 5.52634 13.6754
thorax 6.01963 1.79116 12.0405
lowerneck -26.1728 -11.9729 -25.0103
upperneck 9.38257 -6.34315 -5.3886
head 7.67623 -4.50639 0.773764
rclavicle 1.11319e-014 -4.85035e-014
rhumerus 71.8468 -9.04647 -55.7463
rradius 23.7134
rwrist -6.69086
rhand -45.6989 26.1852
rfingers 7.12502
rthumb -18.456 -2.95924
lclavicle 1.11319e-014 -4.85035e-014
lhumerus -7.70717 -37.6711 92.5553
lradius 95.8661
lwrist -19.794
lhand -47.4165 23.7185
lfingers 7.12502
lthumb -20.1076 52.6979
rfemur -94.6847 -22.4723 33.1461
rtibia 67.0173
rfoot -20.5989 -1.32625
rtoes -4.73826
lfemur -94.6689 -2.04154 -29.7853
ltibia 53.4784
lfoot -5.35829 -22.6211
ltoes 9.52301
228
root 1.32511 15.9326 -2.4146 52.2982 11.3039 4.76867
lowerback 35.5107 3.99983 2.21418
upperback 22.9444 5.72795 13.7414
thorax 6.02685 1.86048 12.1614
lowerneck -26.1095 -12.0085 -24.8845
upperneck 9.18086 -6.4959 -5.32975
head 7.60071 -4.5516 0.764365
rclavicle 1.27222e-014 2.8625e-014
rhumerus 71.8296 -9.3398 -55.5716
rradius 23.7288
rwrist -6.76821
rhand -45.6168 26.3839
rfingers 7.12502
rthumb -18.3771 -2.76807
lclavicle 1.27222e-014 2.8625e-014
lhumerus -7.39026 -37.7123 92.3534
lradius 97.2786
lwrist -14.3147
lhand -43.443 18.2847
lfingers 7.12502
lthumb -16.2849 47.6208
rfemur -94.5378 -22.3864 32.9689
rtibia 67.1133
rfoot -20.7671 -1.41971
rtoes -5.07554
lfemur -94.6055 -1.90866 -29.9398
ltibia 53.594
lfoot -5.49354 -22.6531
ltoes 9.34481
229
root 1.33584 15.9467 -2.38984 52.1802 11.3522 4.75977
lowerback 35.8884 3.98296 2.27989
upperback 22.9405 5.74723 13.7252
thorax 5.89897 1.87655 12.0798
lowerneck -26.0817 -11.9796 -24.9157
upperneck 9.13376 -6.51222 -5.02122
head 7.58789 -4.52853 0.877564
rclavicle 6.83819e-014 6.99722e-014
rhumerus 71.8962 -9.44241 -55.8719
rradius 23.6705
rwrist -6.41992
rhand -45.4312 26.3517
rfingers 7.12502
rthumb -18.1985 -2.81702
lclavicle 6.83819e-014 6.99722e-014
lhumerus -7.41951 -37.8488 92.1331
lradius 97.5721
lwrist -13.7201
lhand -42.7765 18.6819
lfingers 7.12502
lthumb -15.6431 48.0694
rfemur -94.2354 -22.4649 32.885
rtibia 67.0982
rfoot -20.8852 -1.50801
rtoes -5.52095
lfemur -94.3742 -1.87618 -29.9958
ltibia 53.6381
lfoot -5.55726 -22.7404
ltoes 9.50321
230
root 1.36219 15.8872 -2.38952 53.2942 11.7066 4.95595
lowerback 34.8166 3.65086 2.83811
upperback 22.7595 5.43622 13.5955
thorax 6.20806 1.79806 11.7728
lowerneck -26.1981 -12.0831 -25.0362
upperneck 9.10801 -6.59378 -4.87743
head 7.60744 -4.55742 0.924117
rclavicle -7.95139e-015 -4.21423e-014
rhumerus 71.9282 -9.62261 -56.073
rradius 23.6579
rwrist -6.06549
rhand -45.1207 26.0906
rfingers 7.12502
rthumb -17.8998 -3.1057
lclavicle -7.95139e-015 -4.21423e-014
lhumerus -7.34523 -37.8765 91.9323
lradius 98.0511
lwrist -12.2555
lhand -41.1697 17.8686
lfingers 7.12502
lthumb -14.0952 47.3705
rfemur -95.7169 -22.572 33.3895
rtibia 67.2553
rfoot -20.6399 -1.57696
rtoes -5.7904
lfemur -95.6246 -2.53079 -29.8231
ltibia 53.7332
lfoot -5.42725 -22.6571
ltoes 9.36314
231
root 1.36908 15.9065 -2.36233 53.1679 11.6795 4.87159
lowerback 35.0831 3.77072 2.5832
upperback 22.7683 5.54243 13.7483
thorax 6.05133 1.81209 12.0348
lowerneck -25.904 -11.9673 -24.9995
upperneck 8.88788 -6.54803 -5.04831
head 7.4777 -4.52571 0.887134
rclavicle 6.20208e-014 2.94201e-014
rhumerus 71.7606 -9.47867 -55.5887
rradius 23.886
rwrist -6.37875
rhand -44.9876 25.6758
rfingers 7.12502
rthumb -17.7718 -3.53212
lclavicle 6.20208e-014 2.94201e-014
lhumerus -7.65438 -37.7663 92.1952
lradius 96.8102
lwrist -16.0698
lhand -45.2639 19.7728
lfingers 7.12502
lthumb -18.0376 48.9564
rfemur -95.3547 -22.5133 33.2453
rtibia 67.2937
rfoot -20.8029 -1.69456
rtoes -5.91446
lfemur -95.382 -2.38779 -29.866
ltibia 53.7798
lfoot -5.74134 -22.637
ltoes 8.72494
232
root 1.38342 15.9166 -2.33755 53.1816 11.6814 4.95183
lowerback 35.2652 3.81359 2.51406
upperback 22.7607 5.59512 13.822
thorax 5.94928 1.82681 12.1275
lowerneck -25.8703 -11.9494 -24.9476
upperneck 8.87394 -6.55118 -5.08671
head 7.4656 -4.52772 0.869125
rclavicle 5.40694e-014 8.74653e-014
rhumerus 71.6143 -9.51986 -55.1976
rradius 24.0699
rwrist -6.69154
rhand -45.2917 25.926
rfingers 7.12502
rthumb -18.0643 -3.25518
lclavicle 5.40694e-014 8.74653e-014
lhumerus -7.73303 -37.8527 92.2998
lradius 96.3366
lwrist -17.3756
lhand -46.6792 20.7928
lfingers 7.12502
lthumb -19.3988 49.8452
rfemur -95.2127 -22.6403 33.1181
rtibia 67.2704
rfoot -20.923 -1.7199
rtoes -6.01768
lfemur -95.2409 -2.46419 -29.9848
ltibia 53.781
lfoot -5.92099 -22.6301
ltoes 8.34043
233
root 1.4124 15.8514 -2.33849 54.4645 11.9736 5.37131
lowerback 33.8908 3.51136 2.86745
upperback 22.5605 5.25353 13.7431
thorax 6.32754 1.7135 12.0106
lowerneck -25.6862 -11.9274 -24.8172
upperneck 8.66652 -6.63714 -5.20471
head 7.36346 -4.55414 0.813503
rclavicle -4.77083e-014 -4.37326e-014
rhumerus 71.5347 -9.62148 -55.1389
rradius 24.0962
rwrist -6.54476
rhand -45.7452 26.5442
rfingers 7.12502
rthumb -18.5006 -2.59602
lclavicle -4.77083e-014 -4.37326e-014
lhumerus -7.80626 -38.009 92.3356
lradius 96.3606
lwrist -17.0865
lhand -46.6693 20.5417
lfingers 7.12502
lthumb -19.3894 49.595
rfemur -96.9484 -22.9124 33.5656
rtibia 67.4396
rfoot -20.7184 -1.70563
rtoes -6.23774
lfemur -96.5831 -3.31182 -29.9736
ltibia 53.8312
lfoot -5.63812 -22.583
ltoes 8.69221
234
root 1.40605 15.9406 -2.29538 53.1044 11.509 4.92745
lowerback 35.8101 3.96111 2.37606
upperback 22.7424 5.76664 13.8402
thorax 5.68648 1.8964 12.1335
lowerneck -25.4908 -11.8878 -24.7592
upperneck 8.46322 -6.68985 -5.22876
head 7.26345 -4.55844 0.805327
rclavicle -9.22361e-014 -1.04163e-013
rhumerus 71.4703 -9.6665 -55.0859
rradius 24.1433
rwrist -6.36994
rhand -46.2106 26.7929
rfingers 7.12502
rthumb -18.9483 -2.30413
lclavicle -9.22361e-014 -1.04163e-013
lhumerus -7.94016 -38.0811 92.2722
lradius 96.5812
lwrist -16.9037
lhand -46.4704 19.7889
lfingers 7.12502
lthumb -19.198 48.8613
rfemur -94.8483 -22.6681 32.9067
rtibia 67.1449
rfoot -20.9979 -1.69161
rtoes -6.5002
lfemur -94.9263 -2.34144 -30.1957
ltibia 53.7563
lfoot -6.05164 -22.6921
ltoes 9.07429
235
root 1.4323 15.8824 -2.29569 54.3502 12.0374 5.22006
lowerback 34.4014 3.53602 2.99792
upperback 22.5667 5.34479 13.766
thorax 6.14473 1.76531 11.9093
lowerneck -25.4979 -11.8761 -24.7156
upperneck 8.44295 -6.68789 -5.24527
head 7.2551 -4.55606 0.795243
rclavicle 7.95139e-015 7.15625e-014
rhumerus 71.4338 -9.71011 -54.9185
rradius 24.2448
rwrist -6.36801
rhand -46.6225 26.9031
rfingers 7.12502
rthumb -19.3443 -2.15478
lclavicle 7.95139e-015 7.15625e-014
lhumerus -8.00863 -38.1214 92.1961
lradius 96.7636
lwrist -17.2323
lhand -46.3432 19.7255
lfingers 7.12502
lthumb -19.0758 48.8101
rfemur -96.522 -22.983 33.7146
rtibia 67.1898
rfoot -20.7318 -1.66018
rtoes -6.74571
lfemur -96.2308 -3.16709 -29.9662
ltibia 53.7452
lfoot -5.70218 -22.7279
ltoes 9.24899
236
root 1.43672 15.9215 -2.26777 53.9344 11.9121 5.01276
lowerback 35.0434 3.69553 2.80754
upperback 22.6479 5.52315 13.8404
thorax 5.94306 1.82124 12.0128
lowerneck -25.4573 -11.834 -24.6543
upperneck 8.3809 -6.66782 -5.29393
head 7.22237 -4.54302 0.778292
rclavicle 7.4743e-014 3.4191e-014
rhumerus 71.4331 -9.70139 -54.8875
rradius 24.3346
rwrist -6.1726
rhand -46.8323 27.0671
rfingers 7.12502
rthumb -19.5461 -1.97042
lclavicle 7.4743e-014 3.4191e-014
lhumerus -8.13168 -38.1644 92.2601
lradius 96.6654
lwrist -17.8182
lhand -46.6673 21.0353
lfingers 7.12502
lthumb -19.3874 50.0888
rfemur -95.7157 -22.8669 33.5088
rtibia 66.9468
rfoot -20.8608 -1.70932
rtoes -6.67753
lfemur -95.6355 -2.79824 -30.0706
ltibia 53.6342
lfoot -5.74058 -22.881
ltoes 9.64886
237
root 1.43811 15.9815 -2.23562 53.1681 11.6239 4.88712
lowerback 36.2073 3.94086 2.41811
upperback 22.7355 5.78395 13.9093
thorax 5.53437 1.89983 12.1606
lowerneck -25.2473 -11.7928 -24.6627
upperneck 8.18571 -6.725 -5.14954
head 7.12972 -4.53806 0.83649
rclavicle -9.54166e-014 -3.26007e-014
rhumerus 71.3508 -9.71985 -54.8764
rradius 24.4578
rwrist -5.83314
rhand -46.9009 27.053
rfingers 7.12502
rthumb -19.612 -1.9778
lclavicle -9.54166e-014 -3.26007e-014
lhumerus -8.2341 -38.2601 92.2957
lradius 96.6139
lwrist -17.6735
lhand -46.648 21.4806
lfingers 7.12502
lthumb -19.3688 50.536
rfemur -94.4174 -22.7856 32.8926
rtibia 66.824
rfoot -21.164 -1.84555
rtoes -6.84753
lfemur -94.5828 -2.32239 -30.3589
ltibia 53.566
lfoot -6.08843 -22.9727
ltoes 9.60584
238
root 1.46588 15.931 -2.23671 54.2044 12.0032 5.26514
lowerback 35.1478 3.61694 2.89893
upperback 22.552 5.4772 13.8677
thorax 5.81104 1.81227 11.9931
lowerneck -25.1171 -11.8175 -24.6833
upperneck 8.11314 -6.83017 -4.97373
head 7.09745 -4.56643 0.891727
rclavicle -1.41535e-013 -2.62396e-014
rhumerus 71.1897 -9.92971 -54.8041
rradius 24.5835
rwrist -5.56763
rhand -46.9265 27.1754
rfingers 7.12502
rthumb -19.6367 -1.85283
lclavicle -1.41535e-013 -2.62396e-014
lhumerus -8.18282 -38.4683 92.3079
lradius 96.9219
lwrist -16.4218
lhand -45.69 20.6028
lfingers 7.12502
lthumb -18.4475 49.7481
rfemur -95.7314 -23.0855 33.2696
rtibia 66.8536
rfoot -20.8897 -2.02747
rtoes -7.62838
lfemur -95.5909 -3.13944 -30.2473
ltibia 53.5319
lfoot -5.88519 -22.9058
ltoes 9.53369
